<?xml version="1.0" encoding="utf-8" ?><svg xmlns="http://www.w3.org/2000/svg" xmlns:xlink="http://www.w3.org/1999/xlink" width="1583" height="1010" viewBox="0 0 1583 1010"><path fill="white" transform="matrix(0.986908 0 0 0.986328 0.00012207 0)" d="M278.089 415.55C295.204 413.215 318.922 423.763 330.896 435.456C344.48 448.803 352.188 467.015 352.313 486.062C352.259 521.042 329.482 538.414 306.79 560.902C341.031 585.808 350.905 625.099 327.233 661.538C319.709 662.071 308.821 661.793 301.045 661.824C309.867 653.312 316.432 644.247 319.148 632.068C322.041 618.799 319.537 604.924 312.19 593.504C304.841 582.097 293.189 574.152 279.888 571.481C252.746 565.832 240.331 578.243 222.895 595.615L187.629 630.846C166.215 652.285 153.409 668.479 119.58 660.867C111.01 658.525 102.199 653.289 95.9358 647.033C85.8766 636.95 80.2582 623.267 80.3287 609.023C80.3776 599.896 82.8489 590.947 87.49 583.089C94.6008 570.92 127.928 539.743 139.535 528.262C124.395 527.349 114.096 525.629 100.659 517.224C84.5151 507.319 73.0711 491.294 68.9373 472.806C64.477 452.597 68.9668 434.149 80.0197 417.031C88.5737 416.897 97.1295 416.926 105.682 417.119C103.716 419.134 101.79 421.188 99.9066 423.281C91.2291 433.099 86.0994 447.4 86.9819 460.545C87.9027 474.389 94.3293 487.287 104.825 496.357C120.819 510.174 145.441 512.807 163.543 501.551C172.677 495.87 177.227 489.683 184.913 482.469C204.358 464.217 223.726 440.327 245.364 425.237C254.643 418.766 267.167 416.375 278.089 415.55ZM245.671 503.447C222.04 526.46 199.383 550.635 175.524 573.387C171.818 576.921 164.463 579.452 160.326 574.897C151.255 564.908 169.468 552.044 176.711 544.792L209.032 512.348L241.353 479.963C247.523 473.785 256.116 464.647 262.956 459.697C270.395 454.287 279.693 452.089 288.766 453.595C298.361 455.175 305.932 460.849 311.377 468.746C316.349 475.955 318.253 484.122 316.649 492.779C313.388 510.389 282.038 536.878 268.408 550.407C274.619 550.746 281.186 550.989 287.171 552.77C306.895 533.245 332.596 514.579 332.623 486.07C332.574 472.34 327.054 459.197 317.285 449.552C307.606 439.992 294.5 434.713 280.899 434.898C279.841 434.913 278.785 434.975 277.732 435.085C253.755 437.936 245.749 449.679 229.789 465.614L191.022 504.3L136.962 558.18C129.078 566.043 121.107 573.86 113.35 581.846C104.064 591.406 98.588 598.869 100.138 612.874C101.201 622.134 105.927 630.583 113.261 636.332C122.857 643.935 141.139 645.826 151.151 638.033C159.355 631.648 167.499 622.758 174.954 615.306L215.493 574.804L271.371 519.666C278.758 512.287 300.269 494.683 297.075 484.719C286.724 452.44 255.495 493.699 245.671 503.447Z"/><path fill="white" transform="matrix(0.986908 0 0 0.986328 0.00012207 0)" d="M1251.28 414.783C1251.8 414.733 1252.31 414.689 1252.83 414.65C1360.21 406.607 1359.6 567.792 1269.76 573.45C1248.68 575.376 1226.38 571.801 1209.53 557.87C1177.07 531.052 1175.13 470.389 1201.17 438.508C1214.07 422.717 1231.78 416.65 1251.28 414.783ZM1263.69 549.382C1300.61 541.335 1307.38 508.107 1301.17 475.139C1297.08 453.42 1279.31 438.25 1256.74 439.035C1246.1 440.112 1233.53 444.3 1227.27 453.333C1203.72 487.344 1212.09 551.458 1263.69 549.382Z"/><path fill="white" transform="matrix(0.986908 0 0 0.986328 0.00012207 0)" d="M594.735 414.783L595.73 414.704C643.02 411.1 674.842 440.4 677.297 486.843C679.731 532.891 658.25 571.153 608.514 573.767C590.232 575.891 566.783 569.946 552.716 558.336C519.927 531.321 517.846 470.616 543.988 438.46C556.949 422.517 575.055 416.562 594.735 414.783ZM604.935 549.466C637.248 544.274 646.438 520.206 645.922 489.895C645.468 463.18 630.421 438.748 601.199 439.06C590.104 439.912 576.887 443.804 570.267 453.169C546.741 486.453 554.634 549.865 604.935 549.466Z"/><path fill="white" transform="matrix(0.986908 0 0 0.986328 0.00012207 0)" d="M1376.29 414.607C1381.93 414.356 1388.64 414.342 1392.34 419.383C1417.11 453.119 1438.91 489.853 1462.77 524.257C1461.58 505.198 1462.38 485.66 1462.39 466.549C1462.4 453.739 1460.97 438.929 1463.24 426.422C1464 422.251 1465.88 418.691 1469.53 416.342C1472.87 414.196 1477.13 413.978 1480.88 415.066C1484.25 416.045 1488.01 418.519 1489.47 421.837C1492.44 428.604 1492.8 557.34 1489.81 564.545C1487.8 569.386 1484.38 571.574 1479.82 573.578C1470.93 575.112 1464.09 573.441 1458.23 566.349C1449.04 555.242 1441.5 542.656 1433.6 530.577L1391.32 465.67L1391.27 531.216C1391.27 540.925 1392.49 552.719 1390.62 562.196C1389.88 565.979 1388.13 569.468 1384.71 571.514C1380.95 573.766 1376.06 574.564 1371.84 573.225C1368.45 572.148 1365.43 569.779 1363.91 566.513C1360.69 559.575 1360.58 432.848 1363.81 425.028C1366.2 419.253 1370.82 416.916 1376.29 414.607Z"/><path fill="white" transform="matrix(0.986908 0 0 0.986328 0.00012207 0)" d="M438.017 414.784C454.281 413.313 471.713 416.335 485.966 426.396C499.549 434.552 508.72 466.276 485.741 466.63C470.945 466.858 470.88 435.926 445.208 436.344C415.374 436.83 400.987 461.636 434.334 472.263C461.726 480.992 505.246 483.959 506.806 521.829C507.737 560.758 476.905 573.491 442.981 574.061C427.967 573.01 420.704 572.304 405.724 563.916C391.426 555.911 369.931 521.066 397.232 514.885C405.654 513.329 412.612 526.387 414.626 532.684C421.841 555.245 458.652 557.602 472.052 540.099C475.149 536.012 476.511 530.868 475.844 525.783C473.124 506.288 441.753 505.336 426.434 499.674C416.537 496.831 409.235 493.513 400.693 487.422C383.696 475.303 383.268 448.06 395.718 432.544C405.447 420.417 422.598 416.161 438.017 414.784Z"/><path fill="white" transform="matrix(0.986908 0 0 0.986328 0.00012207 0)" d="M836.871 414.611C841.26 414.435 845.783 414.755 849.288 417.742C852.605 420.568 854.207 424.502 855.029 428.668C856.514 436.202 855.573 445.118 855.53 452.819C855.414 473.632 854.138 495.152 855.627 515.896C856.338 525.808 858.678 536.155 866.605 542.848C874.1 549.176 884.909 550.32 894.321 549.448C902.952 548.649 911.25 545.59 916.357 538.167C932.008 515.416 915.309 432.682 927.245 419.244C929.934 416.217 934.044 414.402 938.077 414.325C942.076 414.249 946.66 416.04 949.462 418.885C956.481 426.015 954.184 441.209 954.038 450.33C954.106 476.102 955.404 505.422 952.35 530.281C944.835 591.461 826.534 589.535 825.39 523.919C823.306 493.058 825.079 461.775 824.508 430.807C824.356 422.52 829.191 416.929 836.871 414.611Z"/><path fill="white" transform="matrix(0.986908 0 0 0.986328 0.00012207 0)" d="M982.982 416.198C1016.37 413.593 1055.4 417.485 1089.26 416.173C1102.82 415.647 1107.9 428.29 1101.99 436.256C1096.32 443.907 1064.35 440.985 1054.15 441.342L1054.16 532.37C1054.16 542.317 1056.34 560.26 1049.87 568.074C1042.34 576.637 1025.33 572.585 1024.07 560.72C1022.71 547.875 1023.35 533.912 1023.35 520.943L1023.34 441.65C1009.58 440.133 994.37 443.508 981.151 439.82C973.005 437.547 971.385 429.529 974.647 422.633C976.41 418.904 979.386 417.775 982.982 416.198Z"/><path fill="white" transform="matrix(0.986908 0 0 0.986328 0.00012207 0)" d="M714.177 416.216C715.798 416.076 717.422 415.982 719.047 415.933C737.989 415.486 734.538 435.517 734.88 448.251C735.05 454.564 734.914 461.015 734.938 467.341L735.092 547.15C747.425 547.184 798.716 545.631 806.93 549.041C809.827 550.244 811.951 552.312 813.056 555.282C814.173 558.283 814.374 562.775 812.975 565.704C811.057 569.72 807.098 571.33 803.14 572.584C788.601 573.217 773.844 572.792 759.289 572.816C746.284 572.837 726.151 574.649 713.891 571.258C710.24 570.248 707.896 568.338 706.067 565.034C704.515 562.231 704.152 559.539 703.938 556.39C702.983 542.402 702.673 433.322 704.966 426.033C706.574 420.921 709.684 418.637 714.177 416.216Z"/><path fill="white" transform="matrix(0.986908 0 0 0.986328 0.00012207 0)" d="M1137.58 414.55C1140.35 414.418 1143.49 414.82 1146.1 415.818C1149.47 417.112 1152.4 419.532 1153.78 422.95C1156.51 429.749 1156.25 542.531 1155.45 557.229C1155.32 559.778 1155.07 562.357 1154.08 564.736C1151.98 569.798 1148.74 571.766 1143.94 573.771C1140.3 574.012 1136.42 573.987 1133.04 572.44C1130 571.049 1127.3 568.608 1126.15 565.398C1123.03 556.659 1123.57 445.463 1124.83 429.614C1125.04 426.987 1125.37 424.364 1126.66 422.021C1129.21 417.386 1132.83 415.939 1137.58 414.55Z"/><path fill="white" transform="matrix(0.986908 0 0 0.986328 0.00012207 0)" d="M262.33 586.168C264.39 586.064 266.451 586.005 268.513 585.991C277.479 585.981 286.388 589.926 292.671 596.281C298.929 602.583 302.407 611.127 302.329 620.01C302.154 638.693 287.316 649.506 274.609 661.838C265.892 662.108 256.093 661.86 247.297 661.833C257.427 651.063 276.315 635.695 281.746 623.268C286.576 612.216 272.076 599.951 258.694 608.393C240.781 626.041 223.215 644.131 205.141 661.613C196.447 662.029 186.573 661.759 177.786 661.708L221.177 618.111C232.854 606.388 246.027 590.011 262.33 586.168Z"/><path fill="white" transform="matrix(0.986908 0 0 0.986328 0.00012207 0)" d="M202.297 417.033C210.69 416.575 221.051 416.9 229.587 416.946L224.208 422.378L183.477 463.2C171.432 475.247 158.222 492.726 140.158 492.867C130.805 492.9 121.824 489.2 115.206 482.587C108.395 475.873 105.204 467.935 105.048 458.346C104.766 440.933 120.643 428.611 132.472 416.955C141.116 416.661 151.223 417.021 159.97 417.123C149.164 427.742 137.731 438.034 128.122 449.803C117.364 462.978 133.335 478.36 145.826 471.624C152.043 468.272 162.288 456.75 167.753 451.242C179.103 439.673 190.618 428.269 202.297 417.033Z"/><path fill="white" transform="matrix(0.986908 0 0 0.986328 0.00012207 0)" d="M1421.67 610.493C1424.52 610.335 1430.05 610.359 1432.48 611.67C1449.9 621.07 1448.18 647.837 1429.86 655.239C1403.36 658.548 1398.92 619.244 1421.67 610.493ZM1427.91 650.143C1442.18 643.411 1442.28 616.394 1423.25 615.704C1408.6 622.322 1410.86 650.701 1427.91 650.143Z"/><path fill="white" transform="matrix(0.986908 0 0 0.986328 0.00012207 0)" d="M1369.19 610.462C1397.32 608.714 1399.27 646.004 1377.94 655.14C1351.26 659.119 1346.66 619.066 1369.19 610.462ZM1376.33 649.919C1390.13 641.882 1389.25 614.643 1369.76 615.801C1356.39 623.878 1358.98 652.568 1376.33 649.919Z"/><path fill="white" transform="matrix(0.986908 0 0 0.986328 0.00012207 0)" d="M471.671 640.596C471.82 632.12 471.495 623.446 471.57 614.956C471.588 612.931 472.509 612.388 473.727 611.283C476.084 611.035 475.647 610.698 477.196 611.716C477.892 618.226 479.006 651.451 476.284 655.501C471.009 649.985 459.007 631.513 453.254 624.027C453.311 632.064 454.166 648.074 451.434 654.951L449.777 655.35C446.302 650.52 446.693 618.008 447.868 610.973C453.004 613.223 467.047 634.511 471.671 640.596Z"/><path fill="white" transform="matrix(0.986908 0 0 0.986328 0.00012207 0)" d="M861.126 610.523C867.285 613.927 879.564 633.472 885.389 640.599C885.366 631.162 885.393 621.724 885.47 612.287L886.573 611.249C889.54 611.035 888.61 610.692 890.898 612.009C892.001 622.651 891.26 644.396 891.05 655.816C887.151 653.641 870.902 629.53 866.852 624.113C866.884 633.571 867.133 643.838 866.663 653.277C866.623 654.069 866.161 654.061 865.137 654.839C862.455 654.886 863.325 655.242 861.345 653.879C860.32 642.582 861.027 622.504 861.126 610.523Z"/><path fill="white" transform="matrix(0.986908 0 0 0.986328 0.00012207 0)" d="M827.759 609.909C830.24 613.232 844.889 651.664 844.173 654.519C841.792 654.764 841.57 654.884 839.379 654.109C837.172 652.103 836.425 648.581 835.421 645.587L826.083 645.561L819.514 645.62C818.486 648.489 817.428 652.464 815.341 654.446C812.737 654.401 812.207 654.845 810.399 653.502C812.361 646.415 824.45 616.77 827.759 609.909ZM829.608 641.084L832.408 640.783C833.8 637.923 829.222 625.737 827.639 622.822C826.243 626.48 821.959 635.951 822.22 638.93C823.794 642.218 826.209 641.276 829.608 641.084Z"/><path fill="white" transform="matrix(0.986908 0 0 0.986328 0.00012207 0)" d="M1028.5 609.973C1030.73 612.033 1044.58 649.605 1045.35 654.044C1043.51 655.277 1044.28 654.932 1041.95 655.082C1036.08 651.679 1041.04 645.912 1030.11 645.569L1020.33 645.59C1019.04 649.011 1018.67 652.332 1016.01 654.511C1013.87 654.933 1013.42 655.205 1011.51 654.431C1011.24 649.865 1025.64 616.698 1028.5 609.973ZM1030.11 641.075L1033.11 640.953C1035.31 637.942 1029.9 626.249 1028.48 622.511C1027.32 625.757 1026.03 629.535 1024.67 632.652C1021.23 640.506 1022.3 641.502 1030.11 641.075Z"/><path fill="white" transform="matrix(0.986908 0 0 0.986328 0.00012207 0)" d="M686.116 628.331C686.134 624.341 685.492 615.951 686.557 612.656C688.802 610.756 687.715 611.259 690.721 610.839L691.905 611.759C693.36 621.193 692.23 642.998 692.067 653.325C692.042 654.918 691.345 654.961 689.93 655.968C688.111 655.353 688.189 655.407 686.751 654.141C685.439 648.828 686.044 639.598 686.175 633.836C680.035 633.678 673.423 633.811 667.244 633.829C667.254 637.116 667.785 652.641 666.62 654.186C663.917 654.117 663.448 654.546 661.426 653.203C660.422 647.028 661.097 619.109 661.16 611.264C664.537 611.305 664.81 610.687 666.772 612.565C668.136 616.535 667.381 623.696 667.29 628.404C672.79 629.134 680.638 628.99 686.116 628.331Z"/><path fill="white" transform="matrix(0.986908 0 0 0.986328 0.00012207 0)" d="M513.69 610.468C520.568 610.511 521.9 610.733 527.98 614.034L528.016 616.195C518.936 619.962 499.432 608.897 502.178 635.998C504.073 654.707 527.941 655.427 523.738 637.766C521.837 637.229 520.315 636.726 518.457 636.055L517.192 633.102C520.383 631.646 526.387 632.118 530.144 632.143C530.224 636.642 530.969 647.744 529.246 651.223C523.531 656.591 511.402 656.594 504.912 652.635C494.32 646.174 492.781 629.838 499.042 619.908C502.83 613.9 507.04 611.937 513.69 610.468Z"/><path fill="white" transform="matrix(0.986908 0 0 0.986328 0.00012207 0)" d="M927.321 610.499C931.916 610.292 940.046 610.588 940.879 616.299L939.435 617.393C936.479 618.29 933.349 616.654 930.36 615.536C926.346 616.387 923.433 616.962 920.232 620.121C910.992 629.238 915.349 650.358 929.879 650.596C932.144 650.633 935.326 649.355 936.939 647.585C937.644 644.779 938.319 639.833 936.919 637.2C932.376 636.783 932.293 637.121 930.696 633.135C933.952 631.561 939.805 632.1 943.642 632.157L943.558 651.217C909.572 671.252 894.054 617.883 927.321 610.499Z"/><path fill="white" transform="matrix(0.986908 0 0 0.986328 0.00012207 0)" d="M1330.91 628.506C1330.89 624.651 1330.02 613.888 1332.47 611.514C1335.23 611.133 1334.32 610.867 1336.51 612.012C1337.16 616.537 1337.7 651.49 1336.52 654.325L1333.61 654.968L1332.29 654.722C1329.97 651.535 1331 638.308 1331.11 633.761C1325.44 633.113 1317.8 633.501 1311.95 633.615C1311.95 639.391 1313.06 648.054 1311.23 653.017C1309.21 654.869 1310.22 654.447 1307.42 654.56C1304.76 651.24 1305.93 617.596 1306.21 611.189C1309.29 611.191 1309.36 610.657 1311.4 612.292C1312.91 616.92 1312.12 623.353 1312.02 628.602C1319.13 628.939 1323.85 629.263 1330.91 628.506Z"/><path fill="white" transform="matrix(0.986908 0 0 0.986328 0.00012207 0)" d="M1077.43 610.504C1078.14 610.456 1078.85 610.424 1079.57 610.408C1083.25 610.334 1091.92 611.117 1091.82 615.82C1089.81 618.422 1090.85 617.733 1087.96 618.674C1086.26 617.768 1082.35 615.354 1080.56 615.475C1065.61 616.483 1060.74 638.14 1071.71 646.984C1076 650.438 1084.06 652.353 1087.75 647.077C1089.72 644.252 1088.84 640.468 1088.14 637.401C1084.08 637.039 1083.16 637.42 1081.26 634.085L1082.64 632.732C1085.71 631.685 1090.79 632.091 1094.21 632.168L1094.16 651.559C1056.2 668.074 1047.38 618.78 1077.43 610.504Z"/><path fill="white" transform="matrix(0.986908 0 0 0.986328 0.00012207 0)" d="M963.949 611.287L968.831 611.33C973.464 616.656 962.637 653.564 979.935 650.505C995.706 647.716 984.037 620.312 989.995 611.502C992.58 610.532 991.501 610.683 994.418 611.405L994.676 614.831C994.614 624.787 997.364 643.544 990.669 651.21C985.951 656.613 972.35 656.658 967.703 651.339C960.816 643.456 963.633 621.338 963.949 611.287Z"/><path fill="white" transform="matrix(0.986908 0 0 0.986328 0.00012207 0)" d="M1114.54 611.185C1118.93 611.1 1137.96 610.131 1140.34 612.14L1140.51 615.213C1138.84 616.6 1123.89 616.53 1120.7 616.604L1120.71 628.477C1124.62 628.405 1129.77 628.1 1133.49 628.845C1135.24 630.552 1134.77 629.554 1135.08 631.888C1131.81 634.458 1123.94 632.245 1120.85 635.055L1120.72 638.335L1120.69 649.391C1125.93 649.327 1137.32 648.633 1141.33 651.783C1137.78 655.771 1120.33 654.729 1114.61 654.627L1114.54 611.185Z"/><path fill="white" transform="matrix(0.986908 0 0 0.986328 0.00012207 0)" d="M403.765 611.378C409.787 611.194 424.256 610.177 429.008 612.285C430.13 614.068 429.904 613.239 429.418 615.747C427.268 616.224 413.141 616.268 409.572 616.419L409.57 628.738C413.556 629.042 420.024 628.387 423.563 629.321L423.868 631.498C421.839 636.468 413.668 632.087 409.766 634.3L409.664 638.335L409.615 649.472C416.298 649.454 423.384 648.968 429.619 651.402L429.355 652.842C422.312 655.567 411.446 654.677 403.606 654.475C403.263 640.61 403.421 625.241 403.765 611.378Z"/><path fill="white" transform="matrix(0.986908 0 0 0.986328 0.00012207 0)" d="M1272.32 610.443C1276.37 610.196 1283.69 610.398 1286.43 613.64C1282.58 621.213 1266.78 611.073 1263.41 624.625C1259.64 639.816 1267.1 657.932 1284.58 646.433C1286.3 647.835 1286.34 647.89 1287.21 649.973C1286.25 652.014 1282.67 654.375 1280.57 654.939C1254.45 661.925 1244.9 619.281 1272.32 610.443Z"/><path fill="white" transform="matrix(0.986908 0 0 0.986328 0.00012207 0)" d="M1225.01 610.426C1228.58 610.235 1233.82 610.313 1236.99 612.024C1237.91 614.096 1237.51 613.648 1236.61 616.532C1233.78 617.85 1220.94 611.189 1221.65 623.019C1221.76 624.945 1225.03 627.235 1226.69 628.219C1235.1 633.191 1245.49 638.372 1238.06 649.929C1235.59 653.778 1231.51 654.618 1227.22 655.356C1224.25 655.598 1219.66 655.262 1217.19 653.409C1216.24 650.717 1216.46 651.706 1217.39 648.467C1221.29 647.337 1224.44 652.393 1230.2 649.559C1236.6 647.049 1234.03 640.057 1229.25 637.197C1218.47 630.753 1205.02 617.406 1225.01 610.426Z"/><path fill="white" transform="matrix(0.986908 0 0 0.986328 0.00012207 0)" d="M628.342 610.412C632.055 610.18 638.893 610.124 640.631 613.809L639.803 616.08C636.537 617.825 632.867 614.374 628.853 615.812C623.656 617.446 623.092 623.931 627.462 626.925C635.685 632.558 648.658 635.938 641.669 648.878C639.259 653.341 636.126 654.07 631.556 655.275C627.824 655.241 622.46 655.383 619.514 652.933C619.21 650.86 619.588 650.469 620.492 648.459C623.717 647.683 629.253 652.148 632.857 649.564C647.698 638.918 621.78 634.472 619.279 626.118C616.426 616.586 621.074 612.919 628.342 610.412Z"/><path fill="white" transform="matrix(0.986908 0 0 0.986328 0.00012207 0)" d="M550.291 611.066C552.582 611.01 553.338 611.066 555.601 611.431C557.367 613.604 556.511 644.453 556.46 649.509C562.111 649.774 570.357 648.527 575.334 650.32C576.38 650.696 576.426 652.546 576.775 654.058C573.141 655.357 555.539 654.822 550.507 654.775C550.099 640.635 550.339 625.299 550.291 611.066Z"/><path fill="white" transform="matrix(0.986908 0 0 0.986328 0.00012207 0)" d="M771.554 611.115C774.197 610.97 774.922 610.826 777.407 611.653C778.283 619.167 777.663 641.158 777.617 649.735C782.906 649.999 792.286 648.648 796.818 650.501C797.741 650.878 797.925 652.959 798.252 654.292C794.386 655.289 776.738 654.802 771.667 654.734L771.554 611.115Z"/><path fill="white" transform="matrix(0.986908 0 0 0.986328 0.00012207 0)" d="M1462 611.107C1464.5 611.058 1465.05 611.036 1467.45 611.644C1468.21 616.034 1467.97 643.216 1468.02 649.444C1473.09 649.649 1482.55 648.439 1486.78 650.554C1487.7 651.009 1487.78 653.464 1488 654.853L1462.17 654.817L1462 611.107Z"/><path fill="white" transform="matrix(0.986908 0 0 0.986328 0.00012207 0)" d="M593.57 611.209C596.077 611.146 596.582 611.005 598.897 611.795C599.963 619.872 599.403 645.619 599.411 654.995C596.82 655.01 596.244 655.146 593.853 654.32C592.809 645.339 593.523 621.293 593.57 611.209Z"/></svg>